<?xml version="1.0" encoding="UTF-8"?>
<svg id="Camada_1" xmlns="http://www.w3.org/2000/svg" version="1.1" viewBox="-860.01 -1738.55 8600.12 8600.12">
  <rect x="-860.01" y="-1738.55" width="8600.12" height="8600.12" fill="#0a0a0a"/>
  <!-- Generator: Adobe Illustrator 30.4.0, SVG Export Plug-In . SVG Version: 2.1.4 Build 226)  -->
  <g id="Camada_2" display="none">
    <rect x="5032.76" y="3747.47" width="1972.44" height="1375.56" fill="#020411"/>
  </g>
  <path d="M5373.23,717.86c-132.13,49.03-259.69,106.95-415.55,171.16l-195.61-167.4,160.94,181.63-461.63,214.29-200.1-176.25,167.01,193.52-424.14,215.83-215.58-185.99,174.54,208.27-433.72,227.84-126.19-113.62,108.71,130.64-385.67,250.16-56.98-49.97,41.17,60.06c-77.5,53.39-188.13,124.01-251.65,184.2l265.42-167.53,231.35,268.11c-307.78,176.89-811.69,482.83-1037.53,707.43l1063.52-676.99,228.66,242.38-554.65,350.14,582.35-326.63,212.03,209.85-174.24-228.1,391.35-218.44,275.38,251.78-156.16,84,162.4-82.12,59.8,65.79-47.24-71.86,435.25-224.89,185.99,179.37-152.99-186.72,453.89-219.17,251.27,226.78c4.49-3.33,8.89-6.75,13.34-10.09l-221.99-236.01,439.79-216,132.05,131.75c3.12-3.08,6.28-6.16,9.36-9.23,6.03-5.98,12.05-11.97,18.04-17.91l-121.7-122.81,416.06-200.91h0l18.55,20.43c10-9.06,20.01-18.08,30.18-27.06l-10.94-11.63,59.29-30.61c20.78-17.87,41.72-35.52,62.92-53.14l-143.72,62.2-256.36-265.89,279.23-150.81-293.03,134.1-95.46-84.21,68.7,93.45-422.47,208.91-267.13-276.62,431.88-211-462.78,191.47-240.97-256.14,395.59-189.76h0l.09-.09h.09v.09h0v-.03ZM5470.91,1483.12l-439.79,216-259.39-271.79,435.25-224.89,263.92,280.68h.01ZM4309.46,1681.34l422.82-228.74,251.65,266.92-425.68,212.88-248.79-251.06h0ZM4503.15,1957.79l-411.7,219.72-245.8-245.16,422.82-228.74,234.68,254.22h0v-.04h0ZM5783.78,1736.53l-253.54-250.03,420.93-211.86,246.95,267.94-414.39,193.95h.05ZM5299.96,1968.86l-250.5-244.13,441.45-222.93,256.57,255.97-447.48,211.17h-.04v-.09h0ZM4817.47,2214.15l-242.59-249.18,438.25-219,245.8,245.16-441.45,222.93h0v.09h0ZM4112.9,2199.06l419.48-214.81,248.79,251.06-429.01,226.82-239.21-263.11h-.04v.04h-.01ZM3422.66,2170.93l386.69-217.41,236.35,247.25-385.16,220.32-237.89-250.2h0v.04h0ZM3528.59,1650.22l243.79,271.96-378.96,222.33-242.42-259.05,377.59-235.15h0v-.09h0ZM3987.65,1400.32l240.63,275.98-414.91,223.66-248.45-270.93,422.82-228.74h-.09v.04h0ZM4456.04,1158.2l19.28,20.82c5.3,2.78,8.89,6.84,10.35,11.16l215.79,233.02-421.11,221.77-248.66-261.02.47-.13c-7.52-7.57-7.1-17.95,8.85-24.02,73.14-27.87,143.5-58.26,213.78-89,30.14-13.17,58.44-27.87,88.36-41.17,27.83-12.4,57.2-24.62,72.84-44.5,7.82-9.87,22.83-11.88,35.31-9.11,4.92-.81,9.53-.94,13.64-.34l-8.93-17.57h0v.09h.04,0ZM4949.3,923.73l240.97,256.14-445.98,214.08-248.79-251.06,453.94-219.17h-.14Z" fill="#fff"/>
  <path d="M6367.94,4001.49c-21.79,12.29-42.51,26.44-68.01,42.31l-39.38-33.72,33.71,37.25-74.84,52.23-40.44-35.59,35.13,39.73-68.2,52.09-43.45-37.5,36.9,42.84-69.53,54.81-25.58-22.98,23.01,26.89-60.41,59.02-11.5-10.08,9.02,12.46c-12.05,12.54-29.41,29.22-38.8,43.05l41.72-39.62,48.67,55.06c-48.89,42.19-128.43,114.79-161.48,166.25l166.96-159.99,47.43,49.53-87.16,82.81,92.73-78.08,43.54,42.7-37.43-47.13,62.35-52.24,55.93,50.97-24.98,20.16,26.13-19.83,12.48,13.47-10.44-14.95,69.88-54.19,38.05,36.44-32.47-38.44,73.33-53.19,50.94,45.86c.69-.78,1.36-1.57,2.04-2.35l-46.07-48.23,70.94-52.33,27.15,26.82c.46-.71.92-1.41,1.37-2.12.88-1.37,1.76-2.74,2.65-4.11l-25.06-25.02,67.22-48.75h0l3.88,4.18c1.49-2.09,2.99-4.16,4.5-6.23l-2.27-2.38,9.52-7.37c3.12-4.12,6.28-8.22,9.49-12.3l-23.43,15.27-53.01-54.26,44.64-36.18-47.56,32.74-19.29-17.01,14.86,19.34-68.11,50.57-55.22-56.45,69.7-51.14-75.72,47.32-50-52.34,63.94-46.09h0l.03.02h0ZM6407.88,4165.82l-70.94,52.33-53.71-55.5,69.88-54.19,54.78,57.36h0ZM6209.45,4223.48l67.58-54.86,52.21,54.54-68.55,51.47-51.24-51.15h0ZM6251.74,4280.83l-65.89,52.76-50.53-49.91,67.58-54.86,48.85,52.01h-.01ZM6470.45,4216.65l-52.03-50.87,67.75-51.19,51.41,54.83-67.13,47.23h0ZM6392.25,4273.08l-51.33-49.63,71.03-53.86,52.74,52.11-72.45,51.37h.01ZM6314.66,4332.28l-50.09-50.82,70.59-52.95,50.53,49.91-71.03,53.86h0ZM6190.27,4337.98l67.4-51.81,51.24,51.15-68.73,54.53-49.91-53.87h0ZM6068,4340.69l61.56-51.96,48.94,50.48-61.2,52.58-49.29-51.1h0ZM6071.15,4226.69l50.97,55.73-60.05,52.91-50.35-52.97,59.43-55.68h0ZM6144.49,4166.78l50.53,56.64-66.34,53.67-51.77-55.45,67.58-54.86ZM6219.68,4108.44l4,4.25c1.02.53,1.77,1.36,2.16,2.29l44.9,47.67-67.49,53.34-51.5-53.3.08-.04c-1.55-1.54-1.78-3.8.84-5.32,12.04-6.96,23.51-14.44,34.96-21.98,4.91-3.23,9.45-6.77,14.32-10.03,4.53-3.03,9.33-6.06,11.5-10.55,1.08-2.23,3.67-2.86,5.94-2.41.85-.25,1.65-.32,2.39-.24l-2.1-3.68h0ZM6299.48,4051.44l50,52.34-72.09,51.99-51.24-51.15,73.33-53.19h0Z" display="none" fill="#fff"/>
  <path d="M554.26,2989.2l-265.5,1379.25h1550.88l48.56-210.45-1333.94-3.25,74.47-378.83h1116.99l48.56-246.05H670.79l64.76-317.31h1311.28l48.56-223.4H554.26v.04Z" fill="#fff"/>
  <path d="M3545.9,2989.2h-1126.74l-301.11,1379.25h1295.08c229.9,0,479.2-116.57,514.81-404.73,19.41-145.68-25.91-268.71-165.13-339.97,103.62-48.56,165.13-123.03,194.24-291.41,22.66-194.24-80.96-343.18-411.19-343.18h.04v.04h0ZM2619.9,3215.85h861.23c119.78,0,194.24,35.61,184.54,132.73-22.66,139.23-113.32,181.29-223.4,181.29h-893.59l71.22-314.07h0v.04h0ZM2503.33,3772.72h968.06c139.23,0,200.74,58.26,187.79,161.88-22.66,116.57-123.03,216.94-310.82,220.15h-922.75l77.71-382.03h.01Z" fill="#fff"/>
  <path d="M4397.39,2985.96l-291.41,1382.5h242.85l242.85-1142.9,563.37,951.9,841.78-864.48-216.94,1055.48h255.76l271.96-1379.25-278.46-3.25-786.77,767.32-440.34-767.32h-404.73.09,0Z" fill="#fff"/>
  <path d="M612.52,4669.57c-51.81-25.91-106.83-38.86-174.84-38.86-106.83,0-187.79,32.36-181.29,129.53,9.7,178.09,291.41,77.72,294.62,181.29,0,35.61-51.81,48.56-116.57,48.56s-129.52-9.7-184.54-29.15l6.45,77.72c48.56,22.66,113.32,32.36,178.09,32.36,116.57,0,197.49-29.15,194.24-132.73,0-178.09-281.66-77.72-291.41-181.29-3.25-32.36,42.11-45.31,100.37-45.31,61.51,0,119.78,12.95,152.18,25.91l22.66-68.01h.04v-.02Z" fill="#fff"/>
  <path d="M842.42,4637.21v77.72h165.13v343.18h80.96l-3.25-343.18h165.13v-77.72h-407.98,0Z" fill="#fff"/>
  <path d="M1794.28,4637.21h-288.16v420.89h87.42v-142.48h161.88l97.12,142.48h90.67l-100.37-145.68c51.81-16.2,100.37-58.26,100.37-135.98,0-93.87-74.47-139.23-148.93-139.23h0ZM1593.54,4714.88l184.54,3.25c58.26,0,77.71,25.91,77.71,64.76,0,48.56-32.36,64.76-84.17,64.76h-178.09v-132.73h0v-.04h.01Z" fill="#fff"/>
  <path d="M2218.42,4637.21v420.89h87.42v-420.89h-87.42Z" fill="#fff"/>
  <path d="M2636.1,4637.21v424.14h80.96l3.25-314.07,281.66,310.82h80.96l3.25-420.89h-80.96l3.25,314.07-278.46-314.07h-93.92.01Z" fill="#fff"/>
  <path d="M3795.2,4756.99" fill="#fff"/>
  <path d="M3795.2,4756.99" fill="#fff"/>
  <path d="M3795.2,4698.72c-42.11-38.86-106.83-68.01-194.24-68.01-161.88,0-252.55,84.17-249.3,216.94,6.45,142.48,93.87,213.69,239.6,213.69,97.12,0,165.13-22.66,220.15-61.51v-168.34h-220.15l-3.25,71.22h142.48l-3.25,61.51c-42.11,19.41-93.87,25.91-135.98,25.91-119.78,0-168.34-64.76-152.18-168.34,9.7-74.47,80.96-113.32,155.43-113.32,55.06,0,110.07,19.41,145.68,51.81l55.06-61.51h-.04v-.04h-.01Z" fill="#fff"/>
  <path d="M4530.16,4637.21h-242.85l-45.31,420.89h80.96l12.95-142.48h178.09c113.32,0,161.88-55.06,171.59-142.48,0-80.96-58.26-135.98-155.43-135.98h0v.04h0ZM4361.78,4711.67h152.18c58.26,0,90.67,16.2,84.17,64.76-3.25,55.06-42.11,71.22-103.62,71.22h-145.68l12.95-135.98Z" fill="#99cd40"/>
  <path d="M5210.06,4637.21h-265.5l-45.31,417.64h84.17l16.2-139.23h168.34l84.17,142.48h80.96l-87.42-145.68c58.26-19.41,106.83-55.06,110.07-145.68,0-68.01-55.06-129.53-145.68-129.53h0ZM5025.52,4714.88h161.88c55.06,0,80.96,16.2,80.96,58.26,0,48.56-32.36,71.22-97.12,71.22h-161.88l16.2-129.53h-.04v.04h0Z" fill="#99cd40"/>
  <path d="M6384.98,787.62h0c40.91,268.03-21.63,598.04-318.68,1094.68-247.81,421.23-568.41,886.11-1076.9,1490.52,104.99-69.08,209.42-157.48,313.68-252.98,150.81-138.16,298.98-289.83,445.3-446.11,67.11-71.64,133.88-144.36,200.49-217.46,190.87-263.15,345.27-501.26,479.46-727.43,320.05-530.37,381.65-880.94,329.07-1164.4h0c-124.91-359.72-576.02-339.07-1087.2-227.29-847.9,197.92-2002.12,701.62-3504.74,1521.85-637.84,347.96-1326.28,747.61-2056.16,1191.59-.47.3-1.03.68-1.5,1.15-6.54,6.03-7.27,17.57-.85,14.41,290.51-143.85,475.91-186.72,697.38-261.79.38-.13.77-.34,1.24-.6,510.15-310.69,995.59-594.7,1451.96-848.5,1330.3-740.22,2356.03-1198.17,3112.79-1383.1,1.2-.6,2.31-.98,3.46-1.28,9.32-11.67,19.36-18.89,26.08-14.53,1.88,1.2,3.12,3.08,3.85,5.43.43,1.45,1.62,2.01,3.08,1.67,4.15-.98,8.34-2.01,12.44-2.95,458.77-99.52,862-113.71,965.84,227.12h-.09Z" fill="#99cd40"/>
  <g>
    <path d="M6001.79,4677.95c-8.64,12.7-29.75,40.99-57.28,47.83-57.84,15.6-109.18-36.59-177.79-58.09-17.31-5.39-33.51-7.82-56.77-7.82-36.76,0-68.65,7.31-97.29,20.01,47.02-42.96,113.49-74.68,195.61-74.68,62.67,0,118.88,14.62,172.36,53.69,7.57,5.39,14.58,11.24,21.07,17.06v1.97h.09v.04h0Z" fill="#9aef06"/>
    <path d="M6015.3,4989.79c-12.44-21.46-35.14-50.27-72.97-61.47-11.37-2.95-23.25-4.87-36.21-4.87-39.46,0-72.41,10.26-112.94,20.48-24.88,6.37-47.58,15.13-83.79,17.57-22.19.98-43.22,0-66.99-5.86-34.07-9.28-65.92-30.74-81.6-62.97-9.19-17.57-12.44-39.03-13-63.44-1.07-35.14,13-87.38,54.59-117.64,11.37-7.82,23.77-15.13,37.28-20.01,20.52-7.31,39.97-14.15,70.23-14.15,14.58,0,29.75.98,44.88,5.39,44.29,11.71,87.55,44.41,129.14,58.09,12.44,4.4,24.88,5.86,36.21,5.86,34.58,0,59.42-13.17,86.48-46.85l8.64-7.82v2.44c29.75,32.23,57.84,82.97,57.28,148.85,0,47.36-16.76,96.18-50.27,143.97v.47-.47l-7.05,2.44h.09Z" fill="#9aef06"/>
    <path d="M6007.17,5005.43c-41.08,40.48-107,78.1-197.75,78.1-96.74,0-164.83-37.11-205.87-83.96-20.52-22.44-37.83-50.27-47.58-82.97,5.39,7.82,13,16.59,25.39,26.38,27.57,20.48,64.85,38.05,119.95,39.03,43.77.47,73.48-9.75,108.07-18.55,29.75-7.82,58.35-17.57,94.56-17.57,19.45,0,37.28,1.97,54.59,11.71,21.59,11.24,36.76,28.3,48.65,47.83h0Z" fill="#9aef06"/>
  </g>
  <g id="Camada_5" display="none">
    <path d="M4388.55,2848.77h0c15.32,72.1,63.64,150.17,189.38,248.38,105.56,83.7,234.37,171.6,425.76,277.17-34.11-7.62-69.96-20.2-106.45-34.62-52.79-20.85-106.18-45.4-159.55-71.28-24.47-11.87-48.96-24.04-73.45-36.32-75.36-48.87-138.78-94.82-195.74-139.65-135-104.62-185.09-188-198.85-265.14h0c-2.27-103.41,117.54-140.97,261.86-161.03,240.61-30.09,590.86-11.43,1062.79,54.74,200.31,28.03,418.83,64.42,652.49,108.15.16.03.33.08.5.15,2.3.91,3.6,3.79,1.62,3.59-89.81-9.04-142.38-2.36-207.49-.45-.12,0-.24,0-.37-.03-163.35-30.66-317.66-56.88-461.44-78.17-419.16-62.15-731.43-81.37-946.97-56.62-.37-.04-.7-.03-1.02,0-3.56-2.08-6.88-2.97-8.22-1.22-.37.48-.52,1.08-.48,1.74.02.42-.22.67-.64.72-1.18.14-2.37.28-3.54.43-129.45,18.21-236.12,52.87-230.18,149.47h0,0Z" fill="#99cd40" stroke="#000" stroke-miterlimit="10" stroke-width="2"/>
  </g>
</svg>