<?xml version="1.0" encoding="UTF-8"?>
<svg id="Camada_1" xmlns="http://www.w3.org/2000/svg" version="1.1" viewBox="0 0 1847.34 1375.56">
  <!-- Generator: Adobe Illustrator 30.4.0, SVG Export Plug-In . SVG Version: 2.1.4 Build 226)  -->
  <g id="Camada_2" display="none">
    <rect width="1972.44" height="1375.56" fill="#020411"/>
  </g>
  <path d="M1413.63,314.79c-30.91,11.47-60.75,25.02-97.21,40.04l-45.76-39.16,37.65,42.49-107.99,50.13-46.81-41.23,39.07,45.27-99.22,50.49-50.43-43.51,40.83,48.72-101.46,53.3-29.52-26.58,25.43,30.56-90.22,58.52-13.33-11.69,9.63,14.05c-18.13,12.49-44.01,29.01-58.87,43.09l62.09-39.19,54.12,62.72c-72,41.38-189.88,112.95-242.71,165.49l248.79-158.37,53.49,56.7-129.75,81.91,136.23-76.41,49.6,49.09-40.76-53.36,91.55-51.1,64.42,58.9-36.53,19.65,37.99-19.21,13.99,15.39-11.05-16.81,101.82-52.61,43.51,41.96-35.79-43.68,106.18-51.27,58.78,53.05c1.05-.78,2.08-1.58,3.12-2.36l-51.93-55.21,102.88-50.53,30.89,30.82c.73-.72,1.47-1.44,2.19-2.16,1.41-1.4,2.82-2.8,4.22-4.19l-28.47-28.73,97.33-47h0l4.34,4.78c2.34-2.12,4.68-4.23,7.06-6.33l-2.56-2.72,13.87-7.16c4.86-4.18,9.76-8.31,14.72-12.43l-33.62,14.55-59.97-62.2,65.32-35.28-68.55,31.37-22.33-19.7,16.07,21.86-98.83,48.87-62.49-64.71,101.03-49.36-108.26,44.79-56.37-59.92,92.54-44.39h0l.02-.02h.02ZM1436.48,493.81l-102.88,50.53-60.68-63.58,101.82-52.61,61.74,65.66h0ZM1164.78,540.18l98.91-53.51,58.87,62.44-99.58,49.8-58.2-58.73h0ZM1210.09,604.85l-96.31,51.4-57.5-57.35,98.91-53.51,54.9,59.47h0ZM1509.67,553.09l-59.31-58.49,98.47-49.56,57.77,62.68-96.94,45.37h.01ZM1396.49,607.44l-58.6-57.11,103.27-52.15,60.02,59.88-104.68,49.4h-.01ZM1283.62,664.82l-56.75-58.29,102.52-51.23,57.5,57.35-103.27,52.15h0ZM1118.8,661.29l98.13-50.25,58.2,58.73-100.36,53.06-55.96-61.55h0ZM957.33,654.71l90.46-50.86,55.29,57.84-90.1,51.54-55.65-58.53h0ZM982.11,532.9l57.03,63.62-88.65,52.01-56.71-60.6,88.33-55.01h0v-.02ZM1089.5,474.44l56.29,64.56-97.06,52.32-58.12-63.38,98.91-53.51h0ZM1199.07,417.8l4.51,4.87c1.24.65,2.08,1.6,2.42,2.61l50.48,54.51-98.51,51.88-58.17-61.06.11-.03c-1.76-1.77-1.66-4.2,2.07-5.62,17.11-6.52,33.57-13.63,50.01-20.82,7.05-3.08,13.67-6.52,20.67-9.63,6.51-2.9,13.38-5.76,17.04-10.41,1.83-2.31,5.34-2.78,8.26-2.13,1.15-.19,2.23-.22,3.19-.08l-2.09-4.11h0ZM1314.46,362.95l56.37,59.92-104.33,50.08-58.2-58.73,106.19-51.27h-.02Z" fill="#fff"/>
  <path d="M1335.18,254.02c-21.79,12.29-42.51,26.44-68.01,42.31l-39.38-33.72,33.71,37.25-74.84,52.23-40.44-35.59,35.13,39.73-68.2,52.09-43.45-37.5,36.9,42.84-69.53,54.81-25.58-22.98,23.01,26.89-60.41,59.02-11.5-10.08,9.02,12.46c-12.05,12.54-29.41,29.22-38.8,43.05l41.72-39.62,48.67,55.06c-48.89,42.19-128.43,114.79-161.48,166.25l166.96-159.99,47.43,49.53-87.16,82.81,92.73-78.08,43.54,42.7-37.43-47.13,62.35-52.24,55.93,50.97-24.98,20.16,26.13-19.83,12.48,13.47-10.44-14.95,69.88-54.19,38.05,36.44-32.47-38.44,73.33-53.19,50.94,45.86c.69-.78,1.36-1.57,2.04-2.35l-46.07-48.23,70.94-52.33,27.15,26.82c.46-.71.92-1.41,1.37-2.12.88-1.37,1.76-2.74,2.65-4.11l-25.06-25.02,67.22-48.75h0l3.88,4.18c1.49-2.09,2.99-4.16,4.5-6.23l-2.27-2.38,9.52-7.37c3.12-4.12,6.28-8.22,9.49-12.3l-23.43,15.27-53.01-54.26,44.64-36.18-47.56,32.74-19.29-17.01,14.86,19.34-68.11,50.57-55.22-56.45,69.7-51.14-75.72,47.32-50-52.34,63.94-46.09h0l.03.02h0ZM1375.12,418.35l-70.94,52.33-53.71-55.5,69.88-54.19,54.78,57.36h-.01ZM1176.69,476.01l67.58-54.86,52.21,54.54-68.55,51.47-51.24-51.15h0ZM1218.98,533.36l-65.89,52.76-50.53-49.91,67.58-54.86,48.85,52.01h0ZM1437.69,469.18l-52.03-50.87,67.75-51.19,51.41,54.83-67.13,47.23h0ZM1359.49,525.61l-51.33-49.63,71.03-53.86,52.74,52.11-72.45,51.37h0ZM1281.9,584.81l-50.09-50.82,70.59-52.95,50.53,49.91-71.03,53.86h0ZM1157.51,590.51l67.4-51.81,51.24,51.15-68.73,54.53-49.91-53.87ZM1035.24,593.22l61.56-51.96,48.94,50.48-61.2,52.58-49.29-51.1h-.01ZM1038.39,479.22l50.97,55.73-60.05,52.91-50.35-52.97,59.43-55.68h0ZM1111.73,419.31l50.53,56.64-66.34,53.67-51.77-55.45,67.58-54.86ZM1186.92,360.97l4,4.25c1.02.53,1.77,1.36,2.16,2.29l44.9,47.67-67.49,53.34-51.5-53.3.08-.04c-1.55-1.54-1.78-3.8.84-5.32,12.04-6.96,23.51-14.44,34.96-21.98,4.91-3.23,9.45-6.77,14.32-10.03,4.53-3.03,9.33-6.06,11.5-10.55,1.08-2.23,3.67-2.86,5.94-2.41.85-.25,1.65-.32,2.39-.24l-2.1-3.68h0ZM1266.72,303.97l50,52.34-72.09,51.99-51.24-51.15,73.33-53.19h0Z" display="none" fill="#fff"/>
  <path d="M286.32,846.13l-62.11,322.65h362.8l11.36-49.23-312.05-.76,17.42-88.62h261.3l11.36-57.56h-262.82l15.15-74.23h306.75l11.36-52.26h-360.52,0Z" fill="#fff"/>
  <path d="M986.16,846.13h-263.58l-70.44,322.65h302.96c53.78,0,112.1-27.27,120.43-94.68,4.54-34.08-6.06-62.86-38.63-79.53,24.24-11.36,38.63-28.78,45.44-68.17,5.3-45.44-18.94-80.28-96.19-80.28h.01ZM769.54,899.15h201.47c28.02,0,45.44,8.33,43.17,31.05-5.3,32.57-26.51,42.41-52.26,42.41h-209.04l16.66-73.47h0ZM742.27,1029.42h226.46c32.57,0,46.96,13.63,43.93,37.87-5.3,27.27-28.78,50.75-72.71,51.5h-215.86l18.18-89.37Z" fill="#fff"/>
  <path d="M1185.35,845.37l-68.17,323.41h56.81l56.81-267.36,131.79,222.68,196.92-202.23-50.75,246.91h59.83l63.62-322.65-65.14-.76-184.05,179.5-103.01-179.5h-94.68.02Z" fill="#fff"/>
  <path d="M299.95,1239.22c-12.12-6.06-24.99-9.09-40.9-9.09-24.99,0-43.93,7.57-42.41,30.3,2.27,41.66,68.17,18.18,68.92,42.41,0,8.33-12.12,11.36-27.27,11.36s-30.3-2.27-43.17-6.82l1.51,18.18c11.36,5.3,26.51,7.57,41.66,7.57,27.27,0,46.2-6.82,45.44-31.05,0-41.66-65.89-18.18-68.17-42.41-.76-7.57,9.85-10.6,23.48-10.6,14.39,0,28.02,3.03,35.6,6.06l5.3-15.91h.01Z" fill="#fff"/>
  <path d="M353.73,1231.65v18.18h38.63v80.28h18.94l-.76-80.28h38.63v-18.18h-95.44Z" fill="#fff"/>
  <path d="M576.4,1231.65h-67.41v98.46h20.45v-33.33h37.87l22.72,33.33h21.21l-23.48-34.08c12.12-3.79,23.48-13.63,23.48-31.81,0-21.96-17.42-32.57-34.84-32.57h0ZM529.44,1249.82l43.17.76c13.63,0,18.18,6.06,18.18,15.15,0,11.36-7.57,15.15-19.69,15.15h-41.66v-31.05h0Z" fill="#fff"/>
  <path d="M675.62,1231.65v98.46h20.45v-98.46h-20.45Z" fill="#fff"/>
  <path d="M773.33,1231.65v99.22h18.94l.76-73.47,65.89,72.71h18.94l.76-98.46h-18.94l.76,73.47-65.14-73.47h-21.97Z" fill="#fff"/>
  <path d="M1044.48,1259.67" fill="#fff"/>
  <path d="M1044.48,1259.67" fill="#fff"/>
  <path d="M1044.48,1246.04c-9.85-9.09-24.99-15.91-45.44-15.91-37.87,0-59.08,19.69-58.32,50.75,1.51,33.33,21.96,49.99,56.05,49.99,22.72,0,38.63-5.3,51.5-14.39v-39.38h-51.5l-.76,16.66h33.33l-.76,14.39c-9.85,4.54-21.96,6.06-31.81,6.06-28.02,0-39.38-15.15-35.6-39.38,2.27-17.42,18.94-26.51,36.36-26.51,12.88,0,25.75,4.54,34.08,12.12l12.88-14.39h-.01Z" fill="#fff"/>
  <path d="M1216.41,1231.65h-56.81l-10.6,98.46h18.94l3.03-33.33h41.66c26.51,0,37.87-12.88,40.14-33.33,0-18.94-13.63-31.81-36.36-31.81h0ZM1177.02,1249.07h35.6c13.63,0,21.21,3.79,19.69,15.15-.76,12.88-9.85,16.66-24.24,16.66h-34.08l3.03-31.81Z" fill="#99cd40"/>
  <path d="M1375.46,1231.65h-62.11l-10.6,97.7h19.69l3.79-32.57h39.38l19.69,33.33h18.94l-20.45-34.08c13.63-4.54,24.99-12.88,25.75-34.08,0-15.91-12.88-30.3-34.08-30.3h0ZM1332.29,1249.82h37.87c12.88,0,18.94,3.79,18.94,13.63,0,11.36-7.57,16.66-22.72,16.66h-37.87l3.79-30.3h-.01Z" fill="#99cd40"/>
  <g id="Camada_4">
    <path d="M1592.94-1770.65l-22.79,5.7c-6.81,1.7-8.45,10.6-2.71,14.63,130.77,91.89,255.87,243.27,307.41,474.06.84,3.75,4.15,6.43,7.99,6.43h17.65c5.08,0,8.94-4.58,8.07-9.58-33.36-191.98-147.95-376.42-308.92-490-1.94-1.37-4.39-1.82-6.7-1.24h0Z" fill="#99cd40"/>
    <path d="M887.89-840.77c-27.63-2.65-51.97-4.29-78.58-4.17-407.98,1.6-760.13,176.02-986.14,395.38-67.25,62.07-138.41,144.16-185.19,226.06l25.47.76c40.53-58.29,86.33-107.27,143.31-159.58,181.23-167.6,496.49-368.74,878.06-414.15,64.48-6.32,137.82-12.38,201.93-5.9l1.14-38.41h0Z" fill="#99cd40"/>
  </g>
  <g id="Camada_3">
    <path d="M1650.31,331.11h0c9.57,62.7-5.06,139.9-74.55,256.08-57.97,98.54-132.97,207.29-251.92,348.68,24.56-16.16,48.99-36.84,73.38-59.18,35.28-32.32,69.94-67.8,104.17-104.36,15.7-16.76,31.32-33.77,46.9-50.87,44.65-61.56,80.77-117.26,112.16-170.17,74.87-124.07,89.28-206.08,76.98-272.39h0c-29.22-84.15-134.75-79.32-254.33-53.17-198.35,46.3-468.36,164.13-819.87,356.01-149.21,81.4-310.26,174.89-481,278.75-.11.07-.24.16-.35.27-1.53,1.41-1.7,4.11-.2,3.37,67.96-33.65,111.33-43.68,163.14-61.24.09-.03.18-.08.29-.14,119.34-72.68,232.9-139.12,339.66-198.49,311.2-173.16,551.15-280.29,728.18-323.55.28-.14.54-.23.81-.3,2.18-2.73,4.53-4.42,6.1-3.4.44.28.73.72.9,1.27.1.34.38.47.72.39.97-.23,1.95-.47,2.91-.69,107.32-23.28,201.65-26.6,225.94,53.13h0Z" fill="#99cd40"/>
    <g>
      <path d="M1084.35-479.45c-1.98,2.91-6.82,9.42-13.16,10.99-13.28,3.59-25.07-8.41-40.83-13.34-3.97-1.23-7.69-1.79-13.04-1.79-8.44,0-15.76,1.68-22.34,4.6,10.8-9.87,26.06-17.15,44.93-17.15,14.39,0,27.31,3.36,39.6,12.33,1.74,1.23,3.35,2.58,4.84,3.92v.45h0Z" fill="#9aef06"/>
      <path d="M1087.45-407.82c-2.85-4.93-8.07-11.55-16.75-14.13-2.61-.67-5.33-1.12-8.32-1.12-9.06,0-16.63,2.35-25.94,4.71-5.71,1.46-10.92,3.48-19.24,4.04-5.09.22-9.93,0-15.39-1.35-7.82-2.13-15.14-7.06-18.75-14.46-2.11-4.04-2.85-8.97-2.98-14.57-.25-8.07,2.98-20.07,12.53-27.02,2.61-1.79,5.47-3.48,8.56-4.6,4.72-1.68,9.18-3.25,16.13-3.25,3.35,0,6.82.22,10.3,1.23,10.17,2.69,20.1,10.2,29.67,13.34,2.85,1.01,5.71,1.35,8.32,1.35,7.95,0,13.65-3.03,19.86-10.76l1.98-1.79v.56c6.82,7.4,13.28,19.06,13.16,34.19,0,10.87-3.85,22.08-11.54,33.07v.11-.11l-1.61.56h.02-.01Z" fill="#9aef06"/>
      <path d="M1085.59-404.23c-9.43,9.3-24.58,17.94-45.43,17.94-22.22,0-37.86-8.52-47.29-19.28-4.72-5.16-8.68-11.55-10.92-19.06,1.24,1.79,2.98,3.81,5.83,6.05,6.33,4.71,14.89,8.74,27.55,8.97,10.05.11,16.88-2.24,24.82-4.26,6.82-1.79,13.4-4.04,21.72-4.04,4.46,0,8.56.45,12.53,2.69,4.96,2.58,8.44,6.5,11.17,10.99h.02Z" fill="#9aef06"/>
    </g>
    <g>
      <path d="M1560.67,1241.18c-2.02,2.97-6.96,9.59-13.4,11.19-13.53,3.65-25.54-8.56-41.59-13.59-4.05-1.26-7.84-1.83-13.28-1.83-8.6,0-16.06,1.71-22.76,4.68,11-10.05,26.55-17.47,45.76-17.47,14.66,0,27.81,3.42,40.32,12.56,1.77,1.26,3.41,2.63,4.93,3.99v.46h.01Z" fill="#9aef06"/>
      <path d="M1563.83,1314.13c-2.91-5.02-8.22-11.76-17.07-14.38-2.66-.69-5.44-1.14-8.47-1.14-9.23,0-16.94,2.4-26.42,4.79-5.82,1.49-11.13,3.54-19.6,4.11-5.19.23-10.11,0-15.67-1.37-7.97-2.17-15.42-7.19-19.09-14.73-2.15-4.11-2.91-9.13-3.04-14.84-.25-8.22,3.04-20.44,12.77-27.52,2.66-1.83,5.56-3.54,8.72-4.68,4.8-1.71,9.35-3.31,16.43-3.31,3.41,0,6.96.23,10.5,1.26,10.36,2.74,20.48,10.39,30.21,13.59,2.91,1.03,5.82,1.37,8.47,1.37,8.09,0,13.9-3.08,20.23-10.96l2.02-1.83v.57c6.96,7.54,13.53,19.41,13.4,34.82,0,11.08-3.92,22.5-11.76,33.68v.11-.11l-1.65.57h0Z" fill="#9aef06"/>
      <path d="M1561.93,1317.79c-9.61,9.47-25.03,18.27-46.26,18.27-22.63,0-38.56-8.68-48.16-19.64-4.8-5.25-8.85-11.76-11.13-19.41,1.26,1.83,3.04,3.88,5.94,6.17,6.45,4.79,15.17,8.9,28.06,9.13,10.24.11,17.19-2.28,25.28-4.34,6.96-1.83,13.65-4.11,22.12-4.11,4.55,0,8.72.46,12.77,2.74,5.05,2.63,8.6,6.62,11.38,11.19h0,0Z" fill="#9aef06"/>
    </g>
  </g>
  <g id="Camada_5" display="none">
    <path d="M-644.21-898.7h0c15.32,72.1,63.64,150.17,189.38,248.38,105.56,83.7,234.37,171.6,425.76,277.17-34.11-7.62-69.96-20.2-106.45-34.62-52.79-20.85-106.18-45.4-159.55-71.28-24.47-11.87-48.96-24.04-73.45-36.32-75.36-48.87-138.78-94.82-195.74-139.65-135-104.62-185.09-188-198.85-265.14h0c-2.27-103.41,117.54-140.97,261.86-161.03,240.61-30.09,590.86-11.43,1062.79,54.74,200.31,28.03,418.83,64.42,652.49,108.15.16.03.33.08.5.15,2.3.91,3.6,3.79,1.62,3.59-89.81-9.04-142.38-2.36-207.49-.45-.12,0-.24,0-.37-.03-163.35-30.66-317.66-56.88-461.44-78.17-419.16-62.15-731.43-81.37-946.97-56.62-.37-.04-.7-.03-1.02,0-3.56-2.08-6.88-2.97-8.22-1.22-.37.48-.52,1.08-.48,1.74.02.42-.22.67-.64.72-1.18.14-2.37.28-3.54.43-129.45,18.21-236.12,52.87-230.18,149.47h-.01Z" fill="#99cd40" stroke="#000" stroke-miterlimit="10" stroke-width="2"/>
  </g>
</svg>